# xmcd CD database file
#
# Track frame offsets:
#	182
#	10235
#	22572
#	32922
#	41445
#	51750
#	62520
#	72330
#	82655
#	93747
#	102107
#	111980
#	122497
#	134885
#	146252
#	154907
#	166175
#	179142
#	187095
#	196715
#	206337
#	217980
#	227557
#	234152
#	242512
#	254197
#	263987
#	274322
#	281615
#	290985
#
# Disc length: 4041 seconds
#
# Revision: 1
# Processed by: cddbd v1.5.2PL0 Copyright (c) Steve Scherf et al.
# Submitted via: CDex 1.70beta2
#
DISCID=b40fc71e
DTITLE=Various Artist - Dixie Rock And Roll
DYEAR=1900
DGENRE=Country
TTITLE0=Bill Willis - Boogie Woogie All Night
TTITLE1=Alden Holloway - Blast Off
TTITLE2=Alden Holloway - Swinging The Rock (Instr.)
TTITLE3=Renaud Veluzat - Race Track Boogie
TTITLE4=Orange Ray Hubbard - Sweet Love
TTITLE5=Frank Zolton and Town and Country Boys - Cats Eyes
TTITLE6=Jessie Floyd - Satan's Wife
TTITLE7=Tommy Nelson - Hobo Bop
TTITLE8=Tommy Nelson - Honey Moon Blues
TTITLE9=Derrell Felts and The Confederates - Playmates
TTITLE10=Eddie Reynolds - What Was It
TTITLE11=Jake Thomas - What'll I Do
TTITLE12=Pete Peters and The Rhythmmasters - Dizzy
TTITLE13=Pete Peters and The Rhythmmasters - Rockin' 'N' My Sweet Baby's Arms
TTITLE14=Doug Bragg - Pretty Little Thing
TTITLE15=Eddie Skelton and The Rhythmtones - Keep It Swinging
TTITLE16=Eddie Skelton and The Rhythmtones - Love You Too Much
TTITLE17=Eddie Skelton and The Rhythmtones - Rebels Retreat (Instr.)
TTITLE18=Bill Carroll - Feel So Good
TTITLE19=Pat and Dee - Don't Tease Me
TTITLE20=Mel Price - Little Dog Blues
TTITLE21=Hollidays - Concussion (Instr.)
TTITLE22=Williams Brothers - Whatcha Gonna Do Now
TTITLE23=Floyd McDaniel - I Like To Go
TTITLE24=J. R. White and The Starbrites - Rock 'N' Roll Twist 
TTITLE25=Art Buchanan With The Pioneers - Queen From Bowling Green
TTITLE26=Fred Netherton and The Wildwood Trio - The Wildwood Rock
TTITLE27=Bob Jones - I Want Cha Baby
TTITLE28=Ray Hudson and The Western Rhythmaires - Jackhammer (Instr.)
TTITLE29=Ray Hudson and The Western Rhythmaires - Here I Am, Drunk Again
EXTD=
EXTT0=
EXTT1=
EXTT2=
EXTT3=
EXTT4=
EXTT5=
EXTT6=
EXTT7=
EXTT8=
EXTT9=
EXTT10=
EXTT11=
EXTT12=
EXTT13=
EXTT14=
EXTT15=
EXTT16=
EXTT17=
EXTT18=
EXTT19=
EXTT20=
EXTT21=
EXTT22=
EXTT23=
EXTT24=
EXTT25=
EXTT26=
EXTT27=
EXTT28=
EXTT29=
PLAYORDER=
